<mxfile host="app.diagrams.net" agent="Mozilla/5.0 (Windows NT 10.0; Win64; x64) AppleWebKit/537.36 (KHTML, like Gecko) Chrome/130.0.0.0 Safari/537.36" version="24.8.3">
  <diagram name="페이지-1" id="tYAYw7bZhUkZVnhBotZr">
    <mxGraphModel dx="2390" dy="1300" grid="1" gridSize="10" guides="1" tooltips="1" connect="1" arrows="1" fold="1" page="1" pageScale="1" pageWidth="827" pageHeight="1169" math="0" shadow="0">
      <root>
        <mxCell id="0" />
        <mxCell id="1" parent="0" />
        <mxCell id="xM9EX0mC2QQyahu_kBzQ-100" value="" style="rounded=0;whiteSpace=wrap;html=1;" vertex="1" parent="1">
          <mxGeometry x="111" y="10" width="839" height="1330" as="geometry" />
        </mxCell>
        <mxCell id="xM9EX0mC2QQyahu_kBzQ-1" value="레스토랑 검색" style="ellipse;whiteSpace=wrap;html=1;" vertex="1" parent="1">
          <mxGeometry x="510" y="130" width="130" height="60" as="geometry" />
        </mxCell>
        <mxCell id="xM9EX0mC2QQyahu_kBzQ-2" value="레스토랑 리스트 확인" style="ellipse;whiteSpace=wrap;html=1;" vertex="1" parent="1">
          <mxGeometry x="510" y="30" width="130" height="60" as="geometry" />
        </mxCell>
        <mxCell id="xM9EX0mC2QQyahu_kBzQ-72" value="&amp;lt;&amp;lt;extend&amp;gt;&amp;gt;" style="rounded=0;orthogonalLoop=1;jettySize=auto;html=1;entryX=1;entryY=0.5;entryDx=0;entryDy=0;dashed=1;" edge="1" parent="1" source="xM9EX0mC2QQyahu_kBzQ-3" target="xM9EX0mC2QQyahu_kBzQ-35">
          <mxGeometry relative="1" as="geometry" />
        </mxCell>
        <mxCell id="xM9EX0mC2QQyahu_kBzQ-73" value="&amp;lt;&amp;lt;extend&amp;gt;&amp;gt;" style="rounded=0;orthogonalLoop=1;jettySize=auto;html=1;entryX=1;entryY=0.5;entryDx=0;entryDy=0;dashed=1;" edge="1" parent="1" source="xM9EX0mC2QQyahu_kBzQ-3" target="xM9EX0mC2QQyahu_kBzQ-1">
          <mxGeometry relative="1" as="geometry" />
        </mxCell>
        <mxCell id="xM9EX0mC2QQyahu_kBzQ-74" value="&amp;lt;&amp;lt;extend&amp;gt;&amp;gt;" style="rounded=0;orthogonalLoop=1;jettySize=auto;html=1;entryX=1;entryY=0.5;entryDx=0;entryDy=0;dashed=1;" edge="1" parent="1" source="xM9EX0mC2QQyahu_kBzQ-3" target="xM9EX0mC2QQyahu_kBzQ-4">
          <mxGeometry relative="1" as="geometry" />
        </mxCell>
        <mxCell id="xM9EX0mC2QQyahu_kBzQ-75" style="rounded=0;orthogonalLoop=1;jettySize=auto;html=1;entryX=1;entryY=0.5;entryDx=0;entryDy=0;dashed=1;" edge="1" parent="1" source="xM9EX0mC2QQyahu_kBzQ-3" target="xM9EX0mC2QQyahu_kBzQ-19">
          <mxGeometry relative="1" as="geometry" />
        </mxCell>
        <mxCell id="xM9EX0mC2QQyahu_kBzQ-76" value="&amp;lt;&amp;lt;extend&amp;gt;&amp;gt;" style="edgeLabel;html=1;align=center;verticalAlign=middle;resizable=0;points=[];" vertex="1" connectable="0" parent="xM9EX0mC2QQyahu_kBzQ-75">
          <mxGeometry x="-0.0059" relative="1" as="geometry">
            <mxPoint as="offset" />
          </mxGeometry>
        </mxCell>
        <mxCell id="xM9EX0mC2QQyahu_kBzQ-77" value="&amp;lt;&amp;lt;extend&amp;gt;&amp;gt;" style="edgeStyle=orthogonalEdgeStyle;rounded=0;orthogonalLoop=1;jettySize=auto;html=1;entryX=1;entryY=0.5;entryDx=0;entryDy=0;dashed=1;" edge="1" parent="1" source="xM9EX0mC2QQyahu_kBzQ-3" target="xM9EX0mC2QQyahu_kBzQ-12">
          <mxGeometry relative="1" as="geometry" />
        </mxCell>
        <mxCell id="xM9EX0mC2QQyahu_kBzQ-78" value="&amp;lt;&amp;lt;extend&amp;gt;&amp;gt;" style="rounded=0;orthogonalLoop=1;jettySize=auto;html=1;entryX=1;entryY=0.5;entryDx=0;entryDy=0;dashed=1;" edge="1" parent="1" source="xM9EX0mC2QQyahu_kBzQ-3" target="xM9EX0mC2QQyahu_kBzQ-2">
          <mxGeometry relative="1" as="geometry" />
        </mxCell>
        <mxCell id="xM9EX0mC2QQyahu_kBzQ-3" value="레스토랑 정보 확인" style="ellipse;whiteSpace=wrap;html=1;" vertex="1" parent="1">
          <mxGeometry x="801" y="560" width="130" height="60" as="geometry" />
        </mxCell>
        <mxCell id="xM9EX0mC2QQyahu_kBzQ-4" value="키워드 기반 추천" style="ellipse;whiteSpace=wrap;html=1;" vertex="1" parent="1">
          <mxGeometry x="510" y="230" width="130" height="60" as="geometry" />
        </mxCell>
        <mxCell id="xM9EX0mC2QQyahu_kBzQ-65" value="&amp;lt;&amp;lt;include&amp;gt;&amp;gt;" style="rounded=0;orthogonalLoop=1;jettySize=auto;html=1;entryX=0;entryY=0.5;entryDx=0;entryDy=0;dashed=1;" edge="1" parent="1" source="xM9EX0mC2QQyahu_kBzQ-5" target="xM9EX0mC2QQyahu_kBzQ-10">
          <mxGeometry relative="1" as="geometry" />
        </mxCell>
        <mxCell id="xM9EX0mC2QQyahu_kBzQ-66" value="&amp;lt;&amp;lt;include&amp;gt;&amp;gt;" style="rounded=0;orthogonalLoop=1;jettySize=auto;html=1;entryX=0;entryY=0.5;entryDx=0;entryDy=0;dashed=1;" edge="1" parent="1" source="xM9EX0mC2QQyahu_kBzQ-5" target="xM9EX0mC2QQyahu_kBzQ-11">
          <mxGeometry relative="1" as="geometry" />
        </mxCell>
        <mxCell id="xM9EX0mC2QQyahu_kBzQ-67" value="&amp;lt;&amp;lt;include&amp;gt;&amp;gt;" style="rounded=0;orthogonalLoop=1;jettySize=auto;html=1;entryX=0;entryY=0.5;entryDx=0;entryDy=0;dashed=1;" edge="1" parent="1" source="xM9EX0mC2QQyahu_kBzQ-5" target="xM9EX0mC2QQyahu_kBzQ-12">
          <mxGeometry relative="1" as="geometry" />
        </mxCell>
        <mxCell id="xM9EX0mC2QQyahu_kBzQ-5" value="관심목록 관리" style="ellipse;whiteSpace=wrap;html=1;" vertex="1" parent="1">
          <mxGeometry x="231" y="460" width="130" height="60" as="geometry" />
        </mxCell>
        <mxCell id="xM9EX0mC2QQyahu_kBzQ-53" value="&amp;lt;&amp;lt;include&amp;gt;&amp;gt;" style="rounded=0;orthogonalLoop=1;jettySize=auto;html=1;entryX=0;entryY=0.5;entryDx=0;entryDy=0;dashed=1;" edge="1" parent="1" source="xM9EX0mC2QQyahu_kBzQ-6" target="xM9EX0mC2QQyahu_kBzQ-33">
          <mxGeometry relative="1" as="geometry" />
        </mxCell>
        <mxCell id="xM9EX0mC2QQyahu_kBzQ-54" value="&amp;lt;&amp;lt;include&amp;gt;&amp;gt;" style="rounded=0;orthogonalLoop=1;jettySize=auto;html=1;entryX=0;entryY=0.5;entryDx=0;entryDy=0;dashed=1;" edge="1" parent="1" source="xM9EX0mC2QQyahu_kBzQ-6" target="xM9EX0mC2QQyahu_kBzQ-34">
          <mxGeometry relative="1" as="geometry" />
        </mxCell>
        <mxCell id="xM9EX0mC2QQyahu_kBzQ-55" value="&amp;lt;&amp;lt;include&amp;gt;&amp;gt;" style="rounded=0;orthogonalLoop=1;jettySize=auto;html=1;entryX=0;entryY=0.5;entryDx=0;entryDy=0;dashed=1;" edge="1" parent="1" source="xM9EX0mC2QQyahu_kBzQ-6" target="xM9EX0mC2QQyahu_kBzQ-35">
          <mxGeometry x="-0.0042" relative="1" as="geometry">
            <mxPoint as="offset" />
          </mxGeometry>
        </mxCell>
        <mxCell id="xM9EX0mC2QQyahu_kBzQ-56" value="&amp;lt;&amp;lt;extend&amp;gt;&amp;gt;" style="rounded=0;orthogonalLoop=1;jettySize=auto;html=1;entryX=0;entryY=0.5;entryDx=0;entryDy=0;dashed=1;startArrow=classic;startFill=1;endArrow=none;endFill=0;" edge="1" parent="1" source="xM9EX0mC2QQyahu_kBzQ-6" target="xM9EX0mC2QQyahu_kBzQ-36">
          <mxGeometry relative="1" as="geometry" />
        </mxCell>
        <mxCell id="xM9EX0mC2QQyahu_kBzQ-6" value="방문기록 및 선호도 관리" style="ellipse;whiteSpace=wrap;html=1;" vertex="1" parent="1">
          <mxGeometry x="231" y="790" width="151" height="60" as="geometry" />
        </mxCell>
        <mxCell id="xM9EX0mC2QQyahu_kBzQ-8" value="로그인" style="ellipse;whiteSpace=wrap;html=1;" vertex="1" parent="1">
          <mxGeometry x="510" y="1040" width="130" height="60" as="geometry" />
        </mxCell>
        <mxCell id="xM9EX0mC2QQyahu_kBzQ-102" value="&amp;lt;&amp;lt;include&amp;gt;&amp;gt;" style="rounded=0;orthogonalLoop=1;jettySize=auto;html=1;entryX=0;entryY=0.5;entryDx=0;entryDy=0;dashed=1;" edge="1" parent="1" source="xM9EX0mC2QQyahu_kBzQ-9" target="xM9EX0mC2QQyahu_kBzQ-101">
          <mxGeometry relative="1" as="geometry" />
        </mxCell>
        <mxCell id="xM9EX0mC2QQyahu_kBzQ-9" value="사용자 프로필 전환" style="ellipse;whiteSpace=wrap;html=1;" vertex="1" parent="1">
          <mxGeometry x="231" y="1171" width="130" height="60" as="geometry" />
        </mxCell>
        <mxCell id="xM9EX0mC2QQyahu_kBzQ-10" value="관심목록 추가" style="ellipse;whiteSpace=wrap;html=1;" vertex="1" parent="1">
          <mxGeometry x="510" y="400" width="130" height="60" as="geometry" />
        </mxCell>
        <mxCell id="xM9EX0mC2QQyahu_kBzQ-11" value="관심목록 삭제" style="ellipse;whiteSpace=wrap;html=1;" vertex="1" parent="1">
          <mxGeometry x="510" y="480" width="130" height="60" as="geometry" />
        </mxCell>
        <mxCell id="xM9EX0mC2QQyahu_kBzQ-12" value="관심목록 보기" style="ellipse;whiteSpace=wrap;html=1;" vertex="1" parent="1">
          <mxGeometry x="510" y="560" width="130" height="60" as="geometry" />
        </mxCell>
        <mxCell id="xM9EX0mC2QQyahu_kBzQ-69" value="&amp;lt;&amp;lt;include&amp;gt;&amp;gt;" style="rounded=0;orthogonalLoop=1;jettySize=auto;html=1;entryX=0;entryY=0.5;entryDx=0;entryDy=0;dashed=1;" edge="1" parent="1" source="xM9EX0mC2QQyahu_kBzQ-18" target="xM9EX0mC2QQyahu_kBzQ-4">
          <mxGeometry relative="1" as="geometry" />
        </mxCell>
        <mxCell id="xM9EX0mC2QQyahu_kBzQ-70" value="&amp;lt;&amp;lt;include&amp;gt;&amp;gt;" style="rounded=0;orthogonalLoop=1;jettySize=auto;html=1;dashed=1;" edge="1" parent="1" source="xM9EX0mC2QQyahu_kBzQ-18" target="xM9EX0mC2QQyahu_kBzQ-19">
          <mxGeometry relative="1" as="geometry" />
        </mxCell>
        <mxCell id="xM9EX0mC2QQyahu_kBzQ-18" value="레스토랑 추천" style="ellipse;whiteSpace=wrap;html=1;" vertex="1" parent="1">
          <mxGeometry x="231" y="290" width="130" height="60" as="geometry" />
        </mxCell>
        <mxCell id="xM9EX0mC2QQyahu_kBzQ-19" value="사용자 선호도 기반 추천" style="ellipse;whiteSpace=wrap;html=1;" vertex="1" parent="1">
          <mxGeometry x="500" y="310" width="150" height="60" as="geometry" />
        </mxCell>
        <mxCell id="xM9EX0mC2QQyahu_kBzQ-33" value="방문 기록 추가" style="ellipse;whiteSpace=wrap;html=1;" vertex="1" parent="1">
          <mxGeometry x="510" y="650" width="130" height="60" as="geometry" />
        </mxCell>
        <mxCell id="xM9EX0mC2QQyahu_kBzQ-34" value="방문 기록 삭제" style="ellipse;whiteSpace=wrap;html=1;" vertex="1" parent="1">
          <mxGeometry x="510" y="740" width="130" height="60" as="geometry" />
        </mxCell>
        <mxCell id="xM9EX0mC2QQyahu_kBzQ-35" value="방문 기록 보기" style="ellipse;whiteSpace=wrap;html=1;" vertex="1" parent="1">
          <mxGeometry x="510" y="830" width="130" height="60" as="geometry" />
        </mxCell>
        <mxCell id="xM9EX0mC2QQyahu_kBzQ-36" value="좋아요 / 싫어요" style="ellipse;whiteSpace=wrap;html=1;" vertex="1" parent="1">
          <mxGeometry x="510" y="920" width="130" height="60" as="geometry" />
        </mxCell>
        <mxCell id="xM9EX0mC2QQyahu_kBzQ-45" value="&amp;lt;&amp;lt;include&amp;gt;&amp;gt;" style="edgeStyle=orthogonalEdgeStyle;rounded=0;orthogonalLoop=1;jettySize=auto;html=1;entryX=0;entryY=0.5;entryDx=0;entryDy=0;dashed=1;" edge="1" parent="1" source="xM9EX0mC2QQyahu_kBzQ-43" target="xM9EX0mC2QQyahu_kBzQ-8">
          <mxGeometry relative="1" as="geometry" />
        </mxCell>
        <mxCell id="xM9EX0mC2QQyahu_kBzQ-43" value="개인 데이터 불러오기" style="ellipse;whiteSpace=wrap;html=1;" vertex="1" parent="1">
          <mxGeometry x="231" y="1040" width="130" height="60" as="geometry" />
        </mxCell>
        <mxCell id="xM9EX0mC2QQyahu_kBzQ-59" style="rounded=0;orthogonalLoop=1;jettySize=auto;html=1;entryX=0;entryY=0.5;entryDx=0;entryDy=0;" edge="1" parent="1" source="xM9EX0mC2QQyahu_kBzQ-58" target="xM9EX0mC2QQyahu_kBzQ-1">
          <mxGeometry relative="1" as="geometry" />
        </mxCell>
        <mxCell id="xM9EX0mC2QQyahu_kBzQ-60" style="rounded=0;orthogonalLoop=1;jettySize=auto;html=1;entryX=0;entryY=0.5;entryDx=0;entryDy=0;" edge="1" parent="1" source="xM9EX0mC2QQyahu_kBzQ-58" target="xM9EX0mC2QQyahu_kBzQ-6">
          <mxGeometry relative="1" as="geometry" />
        </mxCell>
        <mxCell id="xM9EX0mC2QQyahu_kBzQ-68" style="rounded=0;orthogonalLoop=1;jettySize=auto;html=1;entryX=0;entryY=0.5;entryDx=0;entryDy=0;" edge="1" parent="1" source="xM9EX0mC2QQyahu_kBzQ-58" target="xM9EX0mC2QQyahu_kBzQ-5">
          <mxGeometry relative="1" as="geometry" />
        </mxCell>
        <mxCell id="xM9EX0mC2QQyahu_kBzQ-71" style="rounded=0;orthogonalLoop=1;jettySize=auto;html=1;entryX=0;entryY=0.5;entryDx=0;entryDy=0;" edge="1" parent="1" source="xM9EX0mC2QQyahu_kBzQ-58" target="xM9EX0mC2QQyahu_kBzQ-18">
          <mxGeometry relative="1" as="geometry" />
        </mxCell>
        <mxCell id="xM9EX0mC2QQyahu_kBzQ-79" style="rounded=0;orthogonalLoop=1;jettySize=auto;html=1;entryX=0;entryY=0.5;entryDx=0;entryDy=0;" edge="1" parent="1" source="xM9EX0mC2QQyahu_kBzQ-58" target="xM9EX0mC2QQyahu_kBzQ-2">
          <mxGeometry relative="1" as="geometry" />
        </mxCell>
        <mxCell id="xM9EX0mC2QQyahu_kBzQ-80" style="rounded=0;orthogonalLoop=1;jettySize=auto;html=1;entryX=0;entryY=0.5;entryDx=0;entryDy=0;" edge="1" parent="1" source="xM9EX0mC2QQyahu_kBzQ-58" target="xM9EX0mC2QQyahu_kBzQ-43">
          <mxGeometry relative="1" as="geometry" />
        </mxCell>
        <mxCell id="xM9EX0mC2QQyahu_kBzQ-81" style="rounded=0;orthogonalLoop=1;jettySize=auto;html=1;entryX=0;entryY=0.5;entryDx=0;entryDy=0;" edge="1" parent="1" source="xM9EX0mC2QQyahu_kBzQ-58" target="xM9EX0mC2QQyahu_kBzQ-9">
          <mxGeometry relative="1" as="geometry" />
        </mxCell>
        <mxCell id="xM9EX0mC2QQyahu_kBzQ-58" value="사용자" style="shape=umlActor;verticalLabelPosition=bottom;verticalAlign=top;html=1;outlineConnect=0;" vertex="1" parent="1">
          <mxGeometry x="11" y="330" width="30" height="60" as="geometry" />
        </mxCell>
        <mxCell id="xM9EX0mC2QQyahu_kBzQ-85" value="&amp;lt;&amp;lt;extend&amp;gt;&amp;gt;" style="rounded=0;orthogonalLoop=1;jettySize=auto;html=1;entryX=0.5;entryY=1;entryDx=0;entryDy=0;dashed=1;" edge="1" parent="1" source="xM9EX0mC2QQyahu_kBzQ-82" target="xM9EX0mC2QQyahu_kBzQ-3">
          <mxGeometry relative="1" as="geometry" />
        </mxCell>
        <mxCell id="xM9EX0mC2QQyahu_kBzQ-82" value="미디어 컨텐츠 재생" style="ellipse;whiteSpace=wrap;html=1;" vertex="1" parent="1">
          <mxGeometry x="801" y="729.9999999999999" width="130" height="60" as="geometry" />
        </mxCell>
        <mxCell id="xM9EX0mC2QQyahu_kBzQ-89" value="&amp;lt;&amp;lt;include&amp;gt;&amp;gt;" style="rounded=0;orthogonalLoop=1;jettySize=auto;html=1;entryX=0.5;entryY=1;entryDx=0;entryDy=0;dashed=1;endArrow=none;endFill=0;startArrow=classic;startFill=1;exitX=0.5;exitY=0;exitDx=0;exitDy=0;" edge="1" parent="1" source="xM9EX0mC2QQyahu_kBzQ-86" target="xM9EX0mC2QQyahu_kBzQ-82">
          <mxGeometry relative="1" as="geometry">
            <mxPoint x="830.7952225882991" y="861.0885010525603" as="sourcePoint" />
          </mxGeometry>
        </mxCell>
        <mxCell id="xM9EX0mC2QQyahu_kBzQ-86" value="재생 기록 저장" style="ellipse;whiteSpace=wrap;html=1;" vertex="1" parent="1">
          <mxGeometry x="801" y="870" width="130" height="60" as="geometry" />
        </mxCell>
        <mxCell id="xM9EX0mC2QQyahu_kBzQ-87" style="edgeStyle=orthogonalEdgeStyle;rounded=0;orthogonalLoop=1;jettySize=auto;html=1;exitX=0.5;exitY=1;exitDx=0;exitDy=0;" edge="1" parent="1">
          <mxGeometry relative="1" as="geometry">
            <mxPoint x="806" y="918.8199999999999" as="sourcePoint" />
            <mxPoint x="806" y="918.8199999999999" as="targetPoint" />
          </mxGeometry>
        </mxCell>
        <mxCell id="xM9EX0mC2QQyahu_kBzQ-97" value="&amp;lt;&amp;lt;include&amp;gt;&amp;gt;" style="edgeStyle=orthogonalEdgeStyle;rounded=0;orthogonalLoop=1;jettySize=auto;html=1;entryX=1;entryY=0.5;entryDx=0;entryDy=0;startArrow=classic;startFill=1;endArrow=none;endFill=0;dashed=1;" edge="1" parent="1" source="xM9EX0mC2QQyahu_kBzQ-96" target="xM9EX0mC2QQyahu_kBzQ-9">
          <mxGeometry relative="1" as="geometry" />
        </mxCell>
        <mxCell id="xM9EX0mC2QQyahu_kBzQ-96" value="프로필 별 정보 불러오기" style="ellipse;whiteSpace=wrap;html=1;" vertex="1" parent="1">
          <mxGeometry x="500" y="1171" width="150" height="60" as="geometry" />
        </mxCell>
        <mxCell id="xM9EX0mC2QQyahu_kBzQ-101" value="프로필 정보 관리" style="ellipse;whiteSpace=wrap;html=1;" vertex="1" parent="1">
          <mxGeometry x="500" y="1260" width="150" height="60" as="geometry" />
        </mxCell>
        <mxCell id="xM9EX0mC2QQyahu_kBzQ-107" value="&amp;lt;&amp;lt;include&amp;gt;&amp;gt;" style="rounded=0;orthogonalLoop=1;jettySize=auto;html=1;dashed=1;endArrow=none;endFill=0;startArrow=classic;startFill=1;" edge="1" parent="1" source="xM9EX0mC2QQyahu_kBzQ-103" target="xM9EX0mC2QQyahu_kBzQ-101">
          <mxGeometry relative="1" as="geometry" />
        </mxCell>
        <mxCell id="xM9EX0mC2QQyahu_kBzQ-103" value="프로필 정보 추가" style="ellipse;whiteSpace=wrap;html=1;" vertex="1" parent="1">
          <mxGeometry x="750" y="1169" width="150" height="60" as="geometry" />
        </mxCell>
        <mxCell id="xM9EX0mC2QQyahu_kBzQ-106" value="&amp;lt;&amp;lt;include&amp;gt;&amp;gt;" style="rounded=0;orthogonalLoop=1;jettySize=auto;html=1;dashed=1;endArrow=none;endFill=0;startArrow=classic;startFill=1;" edge="1" parent="1" source="xM9EX0mC2QQyahu_kBzQ-104" target="xM9EX0mC2QQyahu_kBzQ-101">
          <mxGeometry relative="1" as="geometry" />
        </mxCell>
        <mxCell id="xM9EX0mC2QQyahu_kBzQ-104" value="프로필 정보 제거" style="ellipse;whiteSpace=wrap;html=1;" vertex="1" parent="1">
          <mxGeometry x="750" y="1260" width="150" height="60" as="geometry" />
        </mxCell>
      </root>
    </mxGraphModel>
  </diagram>
</mxfile>
